<svg width="12" height="12" viewBox="0 0 12 12" fill="none" xmlns="http://www.w3.org/2000/svg">
<path d="M11.6804 1.94741L10.044 0.30968C9.63176 -0.102962 8.91453 -0.103755 8.50063 0.310472L1.17008 7.71336C1.13758 7.74614 1.11414 7.78641 1.10135 7.83064L0.0104677 11.6521C-0.0167111 11.7472 0.00993077 11.8499 0.0799871 11.92C0.131916 11.9719 0.201435 11.9999 0.272821 11.9999C0.297852 11.9999 0.323165 11.9965 0.347659 11.9895L4.16581 10.8977C4.21001 10.8849 4.25023 10.8614 4.28299 10.8289L11.6804 3.49134C11.8866 3.28503 12 3.01099 12 2.71939C12 2.42779 11.8866 2.15372 11.6804 1.94741ZM7.31218 2.29435L8.31608 3.29825L3.07474 8.53961L2.69859 7.78705C2.65223 7.69462 2.55796 7.6363 2.45462 7.6363H2.01786L7.31218 2.29435ZM0.669918 11.3301L1.02516 10.0865L1.91344 10.9748L0.669918 11.3301ZM3.81824 10.4307L2.51337 10.8034L1.19654 9.4866L1.5693 8.18174H2.286L2.75606 9.1219C2.78242 9.17465 2.8253 9.21752 2.87805 9.24388L3.81821 9.71395V10.4307H3.81824ZM4.3637 9.98214V9.54538C4.3637 9.44204 4.30538 9.34777 4.21295 9.30141L3.46039 8.92526L8.70173 3.68392L9.70563 4.68782L4.3637 9.98214ZM11.2956 3.11209L10.093 4.30389L7.69609 1.90696L8.88709 0.705242C9.09325 0.499088 9.45225 0.499088 9.6584 0.705242L11.2948 2.3416C11.3978 2.44466 11.4546 2.58155 11.4546 2.72724C11.4546 2.87292 11.3978 3.00982 11.2956 3.11209Z" fill="white"/>
</svg>
