<svg width="19" height="15" viewBox="0 0 19 15" fill="none" xmlns="http://www.w3.org/2000/svg">
<path d="M16.2607 8.92857C16.2607 8.90625 16.2607 8.88393 16.2495 8.86161L9.8321 3.57143L3.41469 8.86161C3.41469 8.88393 3.40353 8.90625 3.40353 8.92857V14.2857C3.40353 14.6763 3.72719 15 4.11782 15H8.40353V10.7143H11.2607V15H15.5464C15.937 15 16.2607 14.6763 16.2607 14.2857V8.92857ZM18.7495 8.15848C18.8723 8.01339 18.85 7.77902 18.7049 7.65625L16.2607 5.625V1.07143C16.2607 0.870535 16.1044 0.714285 15.9035 0.714285H13.7607C13.5598 0.714285 13.4035 0.870535 13.4035 1.07143V3.24777L10.6803 0.970981C10.2116 0.580356 9.45264 0.580356 8.98389 0.970981L0.959333 7.65625C0.814244 7.77902 0.791922 8.01339 0.91469 8.15848L1.60665 8.98438C1.66246 9.05134 1.75174 9.09598 1.84103 9.10714C1.94148 9.1183 2.03076 9.08482 2.10889 9.02902L9.8321 2.58929L17.5553 9.02902C17.6223 9.08482 17.7004 9.10714 17.7897 9.10714C17.8009 9.10714 17.812 9.10714 17.8232 9.10714C17.9125 9.09598 18.0017 9.05134 18.0575 8.98438L18.7495 8.15848Z" fill="black"/>
</svg>
