<svg width="163" height="32" viewBox="0 0 163 32" fill="none" xmlns="http://www.w3.org/2000/svg">
<g filter="url(#filter0_d_2_249)">
<path d="M42.202 7.28H32.802C32.242 7.28 31.802 7.74 31.802 8.28V22C31.802 22.54 32.242 23 32.802 23C33.362 23 33.802 22.54 33.802 22V16.3H40.982C41.522 16.3 41.982 15.86 41.982 15.3C41.982 14.76 41.522 14.3 40.982 14.3H33.802V9.28H42.202C42.762 9.28 43.202 8.84 43.202 8.28C43.202 7.74 42.762 7.28 42.202 7.28ZM51.7384 23.34C50.6384 23.34 49.5584 23.12 48.5384 22.68C47.5584 22.26 46.6784 21.68 45.9184 20.92C45.1784 20.16 44.5784 19.3 44.1584 18.32C43.7384 17.32 43.5184 16.26 43.5184 15.18C43.5184 14.08 43.7384 13.02 44.1784 12.02C44.5984 11.06 45.1984 10.18 45.9584 9.44C46.7184 8.68 47.5984 8.1 48.5784 7.68C49.5984 7.26 50.6784 7.04 51.7984 7.04C53.9784 7.04 56.0184 7.9 57.5384 9.46C58.2784 10.2 58.8384 11.08 59.2384 12.04C59.6584 13.04 59.8584 14.1 59.8584 15.18C59.8584 16.28 59.6584 17.34 59.2384 18.32C58.8384 19.3 58.2584 20.18 57.5184 20.92C55.9784 22.48 53.9384 23.34 51.7384 23.34ZM51.7984 9.04C50.9584 9.04 50.1384 9.2 49.3584 9.52C48.5984 9.84 47.9384 10.28 47.3584 10.86C46.7784 11.42 46.3184 12.08 46.0184 12.82C45.6784 13.56 45.5184 14.36 45.5184 15.18C45.5184 16 45.6784 16.78 45.9984 17.54C46.3184 18.28 46.7584 18.94 47.3384 19.5C48.5184 20.68 50.0784 21.34 51.7384 21.34C53.3984 21.34 54.9384 20.68 56.0984 19.52C56.6584 18.96 57.0784 18.3 57.3984 17.56C57.6984 16.8 57.8584 16 57.8584 15.18C57.8584 13.54 57.2384 12 56.1184 10.86C54.9784 9.68 53.4384 9.04 51.7984 9.04ZM69.2774 23.34C68.1774 23.34 67.0974 23.12 66.0774 22.68C65.0974 22.26 64.2174 21.68 63.4574 20.92C62.7174 20.16 62.1174 19.3 61.6974 18.32C61.2774 17.32 61.0574 16.26 61.0574 15.18C61.0574 14.08 61.2774 13.02 61.7174 12.02C62.1374 11.06 62.7374 10.18 63.4974 9.44C64.2574 8.68 65.1374 8.1 66.1174 7.68C67.1374 7.26 68.2174 7.04 69.3374 7.04C71.5174 7.04 73.5574 7.9 75.0774 9.46C75.8174 10.2 76.3774 11.08 76.7774 12.04C77.1974 13.04 77.3974 14.1 77.3974 15.18C77.3974 16.28 77.1974 17.34 76.7774 18.32C76.3774 19.3 75.7974 20.18 75.0574 20.92C73.5174 22.48 71.4774 23.34 69.2774 23.34ZM69.3374 9.04C68.4974 9.04 67.6774 9.2 66.8974 9.52C66.1374 9.84 65.4774 10.28 64.8974 10.86C64.3174 11.42 63.8574 12.08 63.5574 12.82C63.2174 13.56 63.0574 14.36 63.0574 15.18C63.0574 16 63.2174 16.78 63.5374 17.54C63.8574 18.28 64.2974 18.94 64.8774 19.5C66.0574 20.68 67.6174 21.34 69.2774 21.34C70.9374 21.34 72.4774 20.68 73.6374 19.52C74.1974 18.96 74.6174 18.3 74.9374 17.56C75.2374 16.8 75.3974 16 75.3974 15.18C75.3974 13.54 74.7774 12 73.6574 10.86C72.5174 9.68 70.9774 9.04 69.3374 9.04ZM84.4518 23H84.4318H79.9118C79.3318 23 78.8918 22.54 78.8918 22V8.28C78.8918 8.02 78.9918 7.76 79.1918 7.58C79.3718 7.4 79.6518 7.28 79.9118 7.28H84.4918C85.5918 7.28 86.6518 7.5 87.6318 7.9C88.5918 8.3 89.4718 8.88 90.2318 9.6C90.9718 10.32 91.5518 11.16 91.9718 12.12C92.3918 13.1 92.6118 14.12 92.6118 15.18C92.6118 16.22 92.3918 17.22 91.9518 18.18C91.5318 19.12 90.9518 19.96 90.1918 20.68C89.4318 21.42 88.5518 21.98 87.5918 22.38C86.5918 22.78 85.5318 23 84.4518 23ZM80.9118 20.98H84.4918C85.3118 20.96 86.0918 20.8 86.8318 20.5C87.5718 20.2 88.2318 19.78 88.7918 19.24C89.3518 18.7 89.7918 18.06 90.1318 17.36C90.4518 16.66 90.6118 15.94 90.6118 15.18C90.6118 14.4 90.4518 13.64 90.1318 12.92C89.8118 12.22 89.3718 11.58 88.8118 11.04C87.6518 9.9 86.1318 9.28 84.4918 9.28H80.9118V20.98Z" fill="#14142B"/>
<path d="M108.124 22.92C107.664 23.12 107.064 22.96 106.784 22.42L105.404 19.34C104.104 19.02 102.804 19 101.544 19.28C100.524 19.48 99.5243 19.86 98.5443 20.46C97.5443 21.08 96.5043 21.9 95.7443 22.64C95.3643 23.02 94.8643 23.14 94.4443 22.88C94.0043 22.6 94.0643 22.04 94.2643 21.58L100.584 7.86C100.764 7.5 101.104 7.28 101.504 7.28C101.884 7.28 102.264 7.52 102.404 7.86L108.624 21.58C108.844 22.1 108.624 22.68 108.124 22.92ZM101.484 10.68L97.6443 18.86C98.7043 18.26 100.104 17.72 101.224 17.5C102.304 17.26 103.404 17.22 104.504 17.32L101.484 10.68ZM121.982 23.06C121.562 23.06 121.182 22.8 121.042 22.4L117.202 11.32L113.422 22.4C113.282 22.8 112.902 23.06 112.482 23.06C112.062 23.06 111.682 22.8 111.542 22.4L106.862 8.56C106.682 8.04 106.942 7.48 107.462 7.28C107.982 7.1 108.562 7.36 108.742 7.88L112.482 18.96L116.262 7.88C116.402 7.48 116.782 7.22 117.202 7.22C117.622 7.22 118.002 7.48 118.142 7.88L121.982 18.96L125.662 7.88C125.842 7.36 126.422 7.1 126.942 7.28C127.462 7.48 127.722 8.04 127.542 8.56L122.922 22.4C122.782 22.8 122.402 23.06 121.982 23.06ZM139.726 22.92C139.266 23.12 138.666 22.96 138.386 22.42L137.006 19.34C135.706 19.02 134.406 19 133.146 19.28C132.126 19.48 131.126 19.86 130.146 20.46C129.146 21.08 128.106 21.9 127.346 22.64C126.966 23.02 126.466 23.14 126.046 22.88C125.606 22.6 125.666 22.04 125.866 21.58L132.186 7.86C132.366 7.5 132.706 7.28 133.106 7.28C133.486 7.28 133.866 7.52 134.006 7.86L140.226 21.58C140.446 22.1 140.226 22.68 139.726 22.92ZM133.086 10.68L129.246 18.86C130.306 18.26 131.706 17.72 132.826 17.5C133.906 17.26 135.006 17.22 136.106 17.32L133.086 10.68ZM155.722 22.92C155.262 23.12 154.662 22.96 154.382 22.42L153.002 19.34C151.702 19.02 150.402 19 149.142 19.28C148.122 19.48 147.122 19.86 146.142 20.46C145.142 21.08 144.102 21.9 143.342 22.64C142.962 23.02 142.462 23.14 142.042 22.88C141.602 22.6 141.662 22.04 141.862 21.58L148.182 7.86C148.362 7.5 148.702 7.28 149.102 7.28C149.482 7.28 149.862 7.52 150.002 7.86L156.222 21.58C156.442 22.1 156.222 22.68 155.722 22.92ZM149.082 10.68L145.242 18.86C146.302 18.26 147.702 17.72 148.822 17.5C149.902 17.26 151.002 17.22 152.102 17.32L149.082 10.68Z" fill="#00BA88"/>
</g>
<g clip-path="url(#clip0_2_249)">
<path d="M22.9165 5.37768C22.7653 4.81328 22.2594 4.4556 21.695 4.54047C21.6528 4.54681 21.6105 4.5556 21.5684 4.56689L19.8057 5.0392L21.8633 2.98151C22.3728 2.47209 22.3728 1.64612 21.8633 1.1367C21.3539 0.627276 20.528 0.627276 20.0185 1.1367L17.9608 3.19439L18.4332 1.43167C18.5957 0.825067 18.2357 0.201614 17.6291 0.0390867C17.0226 -0.12344 16.3991 0.236507 16.2365 0.843115L14.5571 7.11068L15.6078 7.39219L15.9755 8.44288L22.1569 6.71723C22.7635 6.55466 23.0791 5.98429 22.9165 5.37768Z" fill="#3CDDB1"/>
<path d="M22.9609 5.37091C22.8097 4.80655 22.2594 4.45623 21.695 4.54106C21.63 4.97505 21.3159 5.35073 20.8649 5.47156L14.6523 7.13621L15.6078 7.39222L15.8893 8.44291L22.1569 6.76354C22.7634 6.60097 23.1234 5.97747 22.9609 5.37091Z" fill="#00BA88"/>
<path d="M0.289698 20.5881L5.79882 12.7322L6.15516 12.567L6.20348 12.1551L10.6375 5.83262L10.9907 5.66435C11.013 5.63247 11.0442 5.25757 11.0442 5.25757C11.0442 5.25757 11.1102 5.16483 11.1221 5.14974C12.2345 3.73888 14.3478 3.59824 15.6365 4.88698L17.0614 6.31187L18.0668 7.36353C19.3969 8.6936 19.2507 10.8556 17.7107 11.9356L2.4119 22.6641C1.37898 23.3884 0.177428 22.6908 0.0178167 21.6892C-0.0383644 21.3365 0.0346155 20.9519 0.289698 20.5881Z" fill="#FFAA5F"/>
<path d="M18.113 7.36354L16.821 6.07156C18.151 7.40163 17.9586 9.60991 16.4186 10.6899L1.1199 21.4184C0.756107 21.6735 0.371771 21.7453 0.019043 21.689C0.178747 22.6906 1.379 23.4347 2.41188 22.7104L13.8064 14.6735L14.0564 14.4021L14.3834 14.2688L17.7106 11.9819C19.2506 10.9019 19.443 8.69361 18.113 7.36354Z" fill="#FF8C5A"/>
<path d="M10.6375 5.83263L13.3049 8.50012C13.3727 8.56787 13.4616 8.60179 13.5504 8.60179C13.6392 8.60179 13.7281 8.56792 13.7959 8.50012C13.9314 8.36457 13.9314 8.1448 13.7959 8.0093L11.0442 5.25763C10.9321 5.41483 10.7315 5.69912 10.6375 5.83263Z" fill="#FF8C5A"/>
<path d="M5.79883 12.7322L8.06958 15.0029C8.13733 15.0707 8.22618 15.1046 8.31499 15.1046C8.40379 15.1046 8.49265 15.0707 8.5604 15.0029C8.69595 14.8674 8.69595 14.6476 8.5604 14.5121L6.20343 12.1552L5.79883 12.7322Z" fill="#FF8C5A"/>
<path d="M11.5935 11.4789C11.4579 11.3433 11.2382 11.3434 11.1026 11.4789C10.9671 11.6145 10.9671 11.8342 11.1026 11.9697L12.5416 13.4087L13.1909 13.8387L13.5663 13.7293L13.1186 13.004L11.5935 11.4789Z" fill="#FF8C5A"/>
<path d="M12.5417 13.4087L13.1188 13.004L14.3836 14.2688L13.8065 14.6734L12.5417 13.4087Z" fill="#FF7350"/>
</g>
<defs>
<filter id="filter0_d_2_249" x="25.802" y="3.04001" width="136.64" height="28.3" filterUnits="userSpaceOnUse" color-interpolation-filters="sRGB">
<feFlood flood-opacity="0" result="BackgroundImageFix"/>
<feColorMatrix in="SourceAlpha" type="matrix" values="0 0 0 0 0 0 0 0 0 0 0 0 0 0 0 0 0 0 127 0" result="hardAlpha"/>
<feOffset dy="2"/>
<feGaussianBlur stdDeviation="3"/>
<feColorMatrix type="matrix" values="0 0 0 0 0.224514 0 0 0 0 0.254167 0 0 0 0 0.227479 0 0 0 0.1 0"/>
<feBlend mode="normal" in2="BackgroundImageFix" result="effect1_dropShadow_2_249"/>
<feBlend mode="normal" in="SourceGraphic" in2="effect1_dropShadow_2_249" result="shape"/>
</filter>
<clipPath id="clip0_2_249">
<rect width="23" height="23" fill="white"/>
</clipPath>
</defs>
</svg>
